<?xml version="1.0" encoding="utf-8"?>
<!-- Generator: Adobe Illustrator 23.1.0, SVG Export Plug-In . SVG Version: 6.00 Build 0)  -->
<svg version="1.1" id="Layer_1" xmlns="http://www.w3.org/2000/svg" xmlns:xlink="http://www.w3.org/1999/xlink" x="0px" y="0px"
	 viewBox="0 0 512 512" style="enable-background:new 0 0 512 512;" xml:space="preserve">
<style type="text/css">
	.st0{fill-rule:evenodd;clip-rule:evenodd;fill:#EDD9B4;}
	.st1{fill:#342214;}
	.st2{fill-rule:evenodd;clip-rule:evenodd;fill:#E7E7E7;}
	.st3{fill:#BC9F82;}
	.st4{fill:#231F20;}
</style>
<path class="st0" d="M349.4,157.9c2.5-56.2-13.4-119.6-93.3-119.6l0,0c-79.9,0-95.8,63.3-93.3,119.4c-0.1,0-0.2,0-0.3,0.1
	c-7.9,2.6-10.7,15.8-6.2,29.4c2.7,8.3,7.6,14.9,12.7,18.2c4,19,8.8,32.9,11,36.4c4.7,7.6,17,19.5,31.1,29.9v19.1v33.8
	c12.3,14.6,28.6,22.1,44.9,22.3c16.3,0.1,32.5-7.2,44.9-22.3v-33.8v-18.9c14.1-10.5,26.6-22.4,31.3-30.1c2.2-3.6,7.1-17.6,11.1-36.9
	c4.9-3.4,9.4-9.8,12-17.7C359.8,173.7,357.1,160.7,349.4,157.9z"/>
<path class="st1" d="M209.9,159.1c6.2,0,11.3,5.7,11.3,12.8s-5.1,12.8-11.3,12.8s-11.3-5.8-11.3-12.8
	C198.6,164.8,203.6,159.1,209.9,159.1"/>
<path class="st1" d="M301.7,159.1c6.2,0,11.3,5.7,11.3,12.8s-5.1,12.8-11.3,12.8c-6.2,0-11.3-5.8-11.3-12.8
	C290.4,164.8,295.5,159.1,301.7,159.1"/>
<g>
	<polygon class="st2" points="207.2,306 218.2,385.4 256.2,346.9 211.1,290.7 	"/>
	<polygon class="st2" points="300.9,290.7 256.2,346.9 293.6,386.2 304,305.8 	"/>
</g>
<path class="st3" d="M256.1,293L256.1,293c-11.7,0-29.3-9.7-44.9-21.2h-0.1v3.2c0,0,22.9,27.2,44.8,28.2s44.9-26.3,44.9-26.3v-5
	C285.3,283.4,267.7,293,256.1,293z"/>
<path class="st4" d="M318,42.7C271.4,6,199.4,27.9,177.7,58.5c-27.2,38.3-17.6,96.3-11.1,140v-0.2c0.1,0.4,0.2,0.9,0.3,1.4
	c0.1,0.4,0.9,1.4,1,1.6c0.2,0.4,1.9,0,2.5-0.3c0.2-0.1,0.3-0.4,0.3-0.6c0.3-3.9,0-11.5,0-11.6c-0.5-6-1.8-11.8-2.7-17.7
	c4.4-27.5,17.3-33.3,24-66.5c1.4-2.2,3-4.4,4.6-6.5c1.9-2.4,3.8-4.7,6-6.8c1.2-0.7,2.3-1.5,3.4-2.3c25.1-9.2,51,1.8,74.6,11.5
	c9.1,3.7,19.2,8.1,29.2,7.3c4.3-0.3,7.5-3.1,7.9-6.7c11.3,34,20.7,49.7,26.2,74.6c-0.8,4.3-1.6,8.6-1.9,13.1c0,0.1-0.2,7.7,0,11.6
	c0,0.2,0.1,0.5,0.3,0.6c0.6,0.3,2.2,0.7,2.5,0.3c0.1-0.3,0.9-1.3,1-1.6c0.4-1.7,0.5-3.1,0.6-4.7c0.3-2.2,0.7-4.5,1-6.9
	C354.4,161.1,367.7,54.3,318,42.7"/>
</svg>
