<?xml version="1.0" encoding="utf-8"?>
<!-- Generator: Adobe Illustrator 23.1.0, SVG Export Plug-In . SVG Version: 6.00 Build 0)  -->
<svg version="1.1" id="logo" xmlns="http://www.w3.org/2000/svg" xmlns:xlink="http://www.w3.org/1999/xlink" x="0px" y="0px"
	 viewBox="0 0 56.7 56.7" style="enable-background:new 0 0 56.7 56.7;" xml:space="preserve">
<style type="text/css">
	.st0{fill:#FFFFFF;}
</style>
<g>
	<path class="st0" d="M36.7,22.5c0-2.3-0.9-4.4-2.4-5.9c-1.5-1.5-3.6-2.4-5.9-2.4s-4.4,0.9-5.9,2.4c-1.5,1.5-2.4,3.6-2.4,5.9
		s0.9,4.4,2.4,5.9c1.5,1.5,3.6,2.4,5.9,2.4s4.4-0.9,5.9-2.4C35.7,26.9,36.7,24.8,36.7,22.5z"/>
	<path class="st0" d="M18.3,39.2c0,1.7,3.8,3.3,10,3.3c5.9,0,10-1.7,10-3.3c0-3.3-3.9-6.7-10-6.7C22.1,32.5,18.3,35.8,18.3,39.2z"/>
</g>
</svg>
