<?xml version="1.0" encoding="utf-8"?>
<!-- Generator: Adobe Illustrator 23.1.0, SVG Export Plug-In . SVG Version: 6.00 Build 0)  -->
<svg version="1.1" id="Layer_1" xmlns="http://www.w3.org/2000/svg" xmlns:xlink="http://www.w3.org/1999/xlink" x="0px" y="0px"
	 viewBox="0 0 512 512" style="enable-background:new 0 0 512 512;" xml:space="preserve">
<style type="text/css">
	.st0{opacity:0.1;}
	.st1{clip-path:url(#SVGID_2_);fill-rule:evenodd;clip-rule:evenodd;fill:#010101;}
	.st2{fill:#BE1E2D;}
	.st3{fill-rule:evenodd;clip-rule:evenodd;fill:#EDD9B4;}
	.st4{fill-rule:evenodd;clip-rule:evenodd;fill:#231F20;}
	.st5{fill:#010101;}
	.st6{fill-rule:evenodd;clip-rule:evenodd;fill:#EDEDED;}
	.st7{fill:#342214;}
	.st8{fill-rule:evenodd;clip-rule:evenodd;fill:#BC9F82;}
</style>
<g class="st0">
	<g>
		<g>
			<g>
				<defs>
					<rect id="SVGID_1_" x="247.8" y="388.8" width="16.3" height="0.5"/>
				</defs>
				<clipPath id="SVGID_2_">
					<use xlink:href="#SVGID_1_"  style="overflow:visible;"/>
				</clipPath>
				<polygon class="st1" points="247.9,388.8 264.1,388.8 264.1,389.3 247.9,389.3 				"/>
			</g>
		</g>
	</g>
</g>
<path class="st2" d="M256,488.5L256,488.5L256,488.5z"/>
<path class="st3" d="M366.3,173.7c-3.8-1.3-8.1,0.3-12.1,3.9C357.6,124.7,342,62.1,256.1,62l0,0H256h-0.1l0,0
	c-85.3,0.1-101.4,61.6-98.4,114.1c-3.4-2.5-7.1-3.5-10.3-2.5c-7.5,2.5-10.1,15-5.8,27.9c4.3,13,13.8,21.5,21.3,19
	c0.5-0.2,1-0.4,1.5-0.7c3.6,14.8,7.6,25.4,9.7,28.4c5.5,8.1,21.8,23.2,39.4,35.6v49.9c11.7,13.8,27.1,21,42.6,21.1
	c15.4,0.1,30.9-6.8,42.6-21.1v-49.6c17.7-12.4,34.1-27.6,39.6-35.7c2.1-3.1,6.3-14.1,9.9-29.4c0.9,0.7,1.8,1.3,2.9,1.6
	c7.5,2.5,17-6,21.3-19C376.4,188.7,373.8,176.2,366.3,173.7z"/>
<path class="st4" d="M383.4,160.1c0-9.7-4.1-18.4-10.6-24.6c5.5-6,8.9-14,8.9-22.8c0-17-12.7-31.2-29-33.5c0-0.5,0-1,0-1.6
	c0-18.7-15.2-33.9-33.9-33.9c-1.7,0-3.4,0.1-5,0.4c-6.1-9.2-16.5-15.3-28.3-15.3c-9,0-17.1,3.5-23.2,9.2
	c-6.1-8.7-16.3-14.4-27.7-14.4c-13.7,0-25.6,8.2-30.9,20c-4.5-2.2-9.5-3.4-14.8-3.4c-18.7,0-33.9,15.2-33.9,33.9
	c0,1.6,0.1,3.2,0.3,4.7c-15.2,3.3-26.6,16.9-26.6,33.1c0,7.4,2.4,14.3,6.5,19.9c-5.6,6.1-9.1,14.2-9.1,23.1c0,8.2,2.9,15.7,7.8,21.6
	c-1.9,4.2-2.9,8.8-2.9,13.7c0,13.6,8.1,25.4,19.7,30.8c0,0.2,0,0.4,0,0.6c-0.1,16.9,12.6,31.1,28.9,33.5c-2.4-2.6-4.4-5-5.7-6.9
	c-2.1-3-6.1-13.6-9.7-28.4c-0.5,0.3-1,0.5-1.5,0.7c-7.5,2.5-17-6-21.3-19c-4.3-12.9-1.7-25.4,5.8-27.9c1.1-0.3,2.3-0.4,3.5-0.3
	c1.2,3.3,3.5,6,6.5,7.7c-0.8,1.4-1.2,3.1-1.2,4.8c0,5.7,4.7,10.4,10.4,10.4c5.8,0,10.4-4.7,10.4-10.4c0-2.5-0.9-4.7-2.3-6.5
	c3.1-2.7,5-6.7,5-11.1c0-1.1-0.1-2.1-0.3-3.1c8-3.7,13.5-11.7,13.5-21.1c0-0.8,0-1.6-0.1-2.4c6.3-1.8,11.8-5.6,15.6-10.8
	c0.6,0,1.3,0.1,1.9,0.1c10.2,0,19.4-4.5,25.6-11.7c2.7,0.7,5.6,1.1,8.6,1.1c9.5,0,18-3.9,24.2-10.2c5,4.4,11.2,7.3,18.1,8.2
	c5,12.5,17.3,21.3,31.5,21.3c1.2,0,2.4-0.1,3.6-0.2c0.3,10.2,7,18.8,16.1,21.9c-1.8,2.5-2.9,5.5-2.9,8.7c0,3.8,1.5,7.3,4,10
	c-0.8,1.5-1.3,3.1-1.3,4.9c0,5.7,4.6,10.4,10.4,10.4s10.4-4.7,10.4-10.4c0-0.9-0.1-1.8-0.4-2.7c3-2.1,5.3-5.3,6.1-8.9
	c0.7,0,1.5,0.2,2.2,0.4c7.5,2.5,10.1,15,5.9,27.9c-4.3,13-13.8,21.5-21.3,19c-1.1-0.3-2-0.9-2.9-1.6c-3.6,15.3-7.8,26.3-9.9,29.4
	c0,0,0,0.1-0.1,0.1c10.3-4.3,18.1-13.6,20.2-24.8c12-5.2,20.3-17.2,20.3-31.1c0-4.2-0.8-8.2-2.2-11.9
	C380.8,175,383.4,167.8,383.4,160.1z"/>
<path class="st5" d="M349.6,177.9c-2.7-2.1-27.9-10.8-37.5-11.1c0,0-21.6-2.6-32.3,2.4c-10.7,4.9-12.9,4.2-23.3,4.7c0,0-0.4,0-1,0
	c-0.7,0-1,0-1,0c-10.4-0.5-12.6,0.2-23.3-4.7s-32.3-2.4-32.3-2.4c-9.6,0.2-34.8,8.9-37.5,11.1c-2.7,2.1,0,5.5,0,5.5
	c10.9-0.9,12.3,17.5,12.3,17.5c1.3,5,3.1,9.5,6,13.7c3.6,5.2,8.7,9.4,14.7,11.6c5.7,2.1,11,2.2,17.1,2.2c7.9-0.1,15.2-2.1,21.2-7.2
	c11.1-9.3,14.9-33.5,14.9-33.5c-1.5-0.7-1.6-3.5-1.6-3.5c-0.1-4.1,6.4-4.5,8.5-4.5c0.3,0,0.6,0,1,0s0.7,0,1,0c2,0,8.6,0.4,8.5,4.5
	c0,0-0.1,2.8-1.6,3.5c0,0,3.9,24.2,14.9,33.5c6,5,13.4,7.1,21.2,7.2c6.1,0.1,11.4-0.1,17.1-2.2c6-2.2,11.1-6.4,14.7-11.6
	c2.9-4.2,4.8-8.8,6-13.7c0,0,1.4-18.5,12.4-17.5C349.6,183.4,352.3,180,349.6,177.9 M240.5,196.7c-2,14.1-5.7,21.5-14.7,25.7
	c-9.1,4.2-17,3.5-17,3.5s-7.7,0.7-16.8-3.5s-12.5-11.6-14.5-25.7c-0.3-2.4-0.6-4.8-0.6-7.2c0.1-6.6,3.3-13.9,9.7-16.8
	c4-1.8,9.4-2.4,13.7-2.7c2.8-0.2,5.7-0.4,8.5-0.4c0.9,0,1.8,0.1,2.7,0.2c7.3,0.6,16.1,0.6,22.4,4.8c1.1,0.8,2.2,1.6,3.2,2.7
	C241.8,182.5,241.5,190.1,240.5,196.7 M333.4,196.7c-2,14.1-5.4,21.5-14.5,25.7s-16.8,3.5-16.8,3.5s-7.9,0.7-17-3.5
	s-12.7-11.6-14.7-25.7c-0.9-6.6-1.3-14.2,3.5-19.4c1-1.1,2-1.9,3.2-2.7c6.3-4.2,15.1-4.2,22.4-4.8c0.9-0.1,1.8-0.2,2.6-0.2
	c2.8,0,5.7,0.2,8.5,0.4c4.3,0.3,9.8,0.9,13.7,2.7c6.3,2.9,9.6,10.2,9.7,16.8C334,191.8,333.8,194.3,333.4,196.7"/>
<g>
	<polygon class="st6" points="213.3,299.4 209.3,313.6 219.8,389.7 255.9,352.4 	"/>
	<polygon class="st6" points="298.5,299.7 301.9,313.4 292.1,390.5 255.9,352.4 	"/>
</g>
<path class="st7" d="M213.4,183.2c5.9,0,10.7,5.4,10.7,12.1c0,6.7-4.8,12.1-10.7,12.1s-10.7-5.4-10.7-12.1
	C202.8,188.6,207.6,183.2,213.4,183.2"/>
<path class="st7" d="M300,183.2c5.9,0,10.7,5.4,10.7,12.1c0,6.7-4.8,12.1-10.7,12.1c-5.9,0-10.7-5.4-10.7-12.1
	C289.4,188.6,294.1,183.2,300,183.2"/>
<path class="st8" d="M255.9,303.7v-0.2c-10.8-0.1-27.2-8.9-42.6-19.7v13.9c16.1,11.7,31.7,18.3,42.6,18.3c11,0,26.5-6.6,42.6-18.3
	v-13.6C283.1,294.9,266.7,303.7,255.9,303.7z"/>
</svg>
